<svg xmlns="http://www.w3.org/2000/svg" viewBox="0 0 360 360">
    <title>angle-right</title>
    <style>.icon{fill:#B8BEC4;fill-rule:evenodd;}</style>
    <path class="icon" d="M250,179.85c0,2.086-0.805,3.931-2.405,5.531L135.499,297.446c-1.604,1.604-3.45,2.404-5.532,2.404   c-2.086,0-3.932-0.8-5.533-2.404l-12.028-12.024c-1.605-1.601-2.405-3.444-2.405-5.53c0-2.082,0.8-3.927,2.405-5.531l94.537-94.51   l-94.537-94.509c-1.605-1.601-2.405-3.446-2.405-5.531c0-2.082,0.8-3.927,2.405-5.531l12.028-12.024   c1.601-1.601,3.446-2.405,5.533-2.405c2.082,0,3.928,0.804,5.532,2.405l112.096,112.063C249.196,175.923,250,177.768,250,179.85z"></path>
</svg>
