<svg xmlns="http://www.w3.org/2000/svg" viewBox="0 0 360 360">
    <title>angle-down</title>
    <style>.icon{fill:#FFFFFF;fill-rule:evenodd;}</style>
    <path class="icon" d="M180,249.85c-2.085,0-3.93-0.805-5.531-2.404L62.405,135.348c-1.604-1.604-2.405-3.45-2.405-5.532   c0-2.086,0.8-3.932,2.405-5.533l12.024-12.027c1.601-1.605,3.445-2.405,5.531-2.405c2.082,0,3.926,0.8,5.531,2.405L180,206.792   l94.509-94.537c1.601-1.605,3.446-2.405,5.532-2.405c2.082,0,3.927,0.8,5.53,2.405l12.024,12.027   c1.602,1.601,2.405,3.447,2.405,5.533c0,2.082-0.804,3.928-2.405,5.532L185.53,247.446C183.925,249.045,182.082,249.85,180,249.85z   "></path>
</svg>
