<svg xmlns="http://www.w3.org/2000/svg" viewBox="0 0 360 360">
    <title>exclamation-white</title>
    <style>.icon{fill:#FFFFFF;fill-rule:evenodd;}</style>
    <path class="icon" d="M201.227,34.574l145.551,267.386c4.42,7.975,4.293,15.952-0.379,23.927c-2.151,3.671-5.089,6.582-8.814,8.735   c-3.728,2.152-7.74,3.229-12.033,3.229H34.45c-4.296,0-8.309-1.076-12.035-3.229c-3.728-2.153-6.666-5.064-8.813-8.735   c-4.673-7.975-4.8-15.952-0.379-23.927l145.55-267.386c2.146-3.922,5.117-7.026,8.907-9.305c3.79-2.279,7.895-3.418,12.319-3.418   c4.421,0,8.528,1.14,12.317,3.418C196.11,27.547,199.077,30.651,201.227,34.574z M203.88,211.945l3.41-87.167   c0-1.519-0.633-2.72-1.895-3.608c-1.644-1.392-3.159-2.089-4.548-2.089h-41.695c-1.392,0-2.908,0.697-4.549,2.089   c-1.264,0.888-1.895,2.217-1.895,3.988l3.222,86.787c0,1.266,0.631,2.311,1.895,3.132c1.262,0.826,2.778,1.236,4.548,1.236h35.061   c1.769,0,3.251-0.41,4.454-1.236C203.089,214.255,203.752,213.21,203.88,211.945z M204.258,282.968v-36.082   c0-1.772-0.601-3.259-1.8-4.462c-1.203-1.203-2.623-1.806-4.265-1.806h-36.387c-1.644,0-3.065,0.603-4.265,1.806   c-1.203,1.203-1.801,2.689-1.801,4.462v36.082c0,1.775,0.598,3.261,1.801,4.463c1.199,1.205,2.621,1.804,4.265,1.804h36.387   c1.642,0,3.062-0.599,4.265-1.804C203.658,286.229,204.258,284.744,204.258,282.968z"></path>
</svg>
