<svg xmlns="http://www.w3.org/2000/svg" viewBox="0 0 360 360">
    <title>eye</title>
    <style>.icon{fill:#B8BEC4;fill-rule:evenodd;}</style>
    <path class="icon" d="M349.004,175.251c-0.464-1.089-11.673-26.979-37.563-52.848C287.446,98.429,245.763,69.85,183.448,69.85   c-49.145,0-94.481,17.939-131.104,51.877c-27.547,25.528-40.491,51.054-41.029,52.127c-1.85,3.699-1.742,8.074,0.289,11.677   c23.411,41.515,55.459,71.367,95.252,88.728c32.261,14.072,60.731,15.592,71.472,15.592c2.73,0,4.64-0.092,5.545-0.15   c44.984-0.112,87.715-18.072,123.603-51.955c26.898-25.395,40.505-50.712,41.071-51.777   C350.311,182.649,350.477,178.708,349.004,175.251z M289.934,220.215c-31.64,29.637-67.465,44.664-106.486,44.664   c-0.308,0-0.65,0.013-0.959,0.037c-0.014,0.003-1.505,0.111-4.16,0.111c-21.395,0-93.583-6.303-141.653-85.684   c5.026-8.229,15.943-24.226,33.136-40.003c32.297-29.642,70.529-44.669,113.636-44.669c42.908,0,79.868,15.024,109.854,44.653   c16.132,15.94,25.892,32.111,30.247,40.268C318.432,187.75,307.139,204.098,289.934,220.215z"></path>
    <path class="icon" d="M181.503,105.842c-40.034,0-72.49,32.546-72.49,72.691c0,40.146,32.456,72.693,72.49,72.693   c40.035,0,72.491-32.547,72.491-72.693C253.995,138.388,221.539,105.842,181.503,105.842z M175.126,141.383   c-10.809,0.373-18.332,4.465-22.997,12.505c-3.882,6.688-4.365,13.692-4.37,13.765c-0.295,6.212-5.412,11.013-11.551,11.013   c-0.188,0-0.376-0.003-0.565-0.012c-6.39-0.305-11.318-5.792-11.013-12.197c0.767-16.134,12.143-46.988,49.697-48.285   c6.438-0.221,11.755,4.796,11.975,11.207C186.522,135.789,181.519,141.162,175.126,141.383z"></path>
</svg>
