<svg xmlns="http://www.w3.org/2000/svg" viewBox="0 0 360 360">
    <title>favorite</title>
    <style>.icon{fill:#fff;fill-rule:evenodd;}.icon-bg{fill:#B8BEC4;fill-rule:evenodd;}</style>
    <circle class="icon-bg" cx="180" cy="179.85" r="155"></circle>
    <path class="icon" d="M281.438,160.48c0,16.617-8.61,33.533-25.824,50.747l-70.256,67.662c-1.354,1.354-3.008,2.03-4.962,2.03    c-1.956,0-3.609-0.677-4.962-2.03l-70.369-67.888c-0.752-0.601-1.786-1.579-3.101-2.932c-1.316-1.353-3.402-3.814-6.259-7.387    c-2.858-3.57-5.413-7.234-7.668-10.995c-2.256-3.759-4.269-8.306-6.034-13.645c-1.768-5.338-2.649-10.525-2.649-15.563    c0-16.538,4.772-29.47,14.321-38.793c9.547-9.321,22.74-13.983,39.582-13.983c4.661,0,9.417,0.809,14.266,2.425    c4.85,1.617,9.36,3.797,13.533,6.541c4.172,2.745,7.762,5.32,10.77,7.725c3.005,2.407,5.864,4.961,8.57,7.668    c2.706-2.707,5.563-5.262,8.57-7.668c3.006-2.405,6.597-4.98,10.77-7.725c4.172-2.743,8.684-4.923,13.532-6.541    c4.85-1.616,9.604-2.425,14.266-2.425c16.84,0,30.033,4.663,39.582,13.983C276.663,131.011,281.438,143.943,281.438,160.48z     M267.003,160.48c0-6.089-0.81-11.463-2.425-16.125c-1.618-4.661-3.685-8.363-6.202-11.108c-2.521-2.744-5.582-4.98-9.19-6.71    c-3.608-1.729-7.145-2.893-10.601-3.496c-3.459-0.601-7.144-0.902-11.052-0.902c-3.91,0-8.12,0.958-12.63,2.875    c-4.511,1.917-8.666,4.324-12.462,7.217c-3.797,2.895-7.047,5.602-9.754,8.12c-2.707,2.52-4.962,4.832-6.766,6.935    c-1.354,1.655-3.197,2.481-5.526,2.481c-2.331,0-4.173-0.826-5.525-2.481c-1.805-2.104-4.061-4.416-6.768-6.935    c-2.705-2.518-5.959-5.225-9.754-8.12c-3.798-2.894-7.95-5.3-12.461-7.217c-4.511-1.917-8.722-2.875-12.631-2.875    s-7.594,0.301-11.051,0.902c-3.46,0.603-6.992,1.767-10.601,3.496c-3.608,1.73-6.674,3.966-9.19,6.71    c-2.52,2.745-4.588,6.447-6.203,11.108c-1.617,4.663-2.424,10.036-2.424,16.125c0,12.63,7.029,25.976,21.088,40.034l65.52,63.151    l65.406-63.039C259.935,186.494,267.003,173.111,267.003,160.48z"></path>
</svg>
