<svg xmlns="http://www.w3.org/2000/svg" viewBox="0 0 360 360">
    <title>heart</title>
    <style>.icon{fill:#B8BEC4;fill-rule:evenodd;}</style>
    <path class="icon" d="M355,121.256c0,28.78-14.913,58.076-44.728,87.89L188.592,326.333c-2.342,2.345-5.208,3.518-8.592,3.518   c-3.389,0-6.252-1.173-8.595-3.518L49.531,208.755c-1.303-1.041-3.095-2.734-5.371-5.078c-2.28-2.343-5.893-6.606-10.84-12.792   c-4.95-6.183-9.376-12.531-13.281-19.044c-3.906-6.51-7.392-14.384-10.45-23.632c-3.061-9.244-4.589-18.228-4.589-26.954   c0-28.643,8.266-51.04,24.804-67.187C46.34,37.925,69.191,29.85,98.359,29.85c8.071,0,16.309,1.402,24.706,4.2   c8.4,2.801,16.212,6.576,23.439,11.328c7.226,4.754,13.442,9.213,18.652,13.379c5.205,4.169,10.156,8.593,14.844,13.282   c4.686-4.688,9.635-9.113,14.843-13.282c5.206-4.166,11.426-8.625,18.654-13.379c7.224-4.751,15.039-8.527,23.436-11.328   c8.397-2.798,16.633-4.2,24.707-4.2c29.165,0,52.017,8.075,68.554,24.219C346.727,70.216,355,92.613,355,121.256z M329.999,121.256   c0-10.546-1.401-19.854-4.198-27.928c-2.805-8.072-6.382-14.484-10.743-19.238c-4.366-4.753-9.668-8.625-15.917-11.622   c-6.249-2.994-12.373-5.011-18.36-6.055c-5.988-1.041-12.37-1.563-19.14-1.563c-6.773,0-14.063,1.66-21.875,4.98   c-7.813,3.32-15.008,7.489-21.583,12.5c-6.577,5.014-12.204,9.701-16.892,14.063c-4.689,4.364-8.597,8.367-11.721,12.011   c-2.344,2.866-5.536,4.296-9.569,4.296c-4.038,0-7.229-1.43-9.57-4.296c-3.125-3.644-7.032-7.647-11.72-12.011   c-4.686-4.362-10.32-9.048-16.893-14.063c-6.578-5.012-13.769-9.18-21.583-12.5c-7.812-3.32-15.106-4.98-21.875-4.98   c-6.771,0-13.153,0.522-19.14,1.563c-5.991,1.044-12.109,3.061-18.36,6.055c-6.249,2.997-11.557,6.869-15.917,11.622   c-4.364,4.754-7.944,11.167-10.743,19.238C31.398,101.402,30,110.71,30,121.256c0,21.875,12.173,44.989,36.523,69.337L180,299.966   l113.279-109.18C317.758,166.309,329.999,143.13,329.999,121.256z"></path>
</svg>
