<svg xmlns="http://www.w3.org/2000/svg" viewBox="0 0 360 360">
    <title>plus</title>
    <style>.icon{fill:#B8BEC4;fill-rule:evenodd;}</style>
    <path class="icon" d="M339.635,157.1v43.638c0,6.062-2.123,11.214-6.364,15.454c-4.243,4.243-9.396,6.363-15.454,6.363h-94.545 v94.546c0,6.062-2.124,11.215-6.363,15.454c-4.244,4.243-9.396,6.363-15.455,6.363h-43.637c-6.061,0-11.214-2.12-15.455-6.363 c-4.243-4.239-6.363-9.393-6.363-15.454v-94.546H41.453c-6.062,0-11.215-2.12-15.455-6.363c-4.243-4.24-6.363-9.393-6.363-15.454 V157.1c0-6.058,2.12-11.211,6.363-15.454c4.24-4.24,9.394-6.363,15.455-6.363h94.545V40.738c0-6.06,2.12-11.211,6.363-15.455 c4.241-4.239,9.395-6.364,15.455-6.364h43.637c6.059,0,11.211,2.125,15.455,6.364c4.239,4.244,6.363,9.396,6.363,15.455v94.545 h94.545c6.059,0,11.211,2.123,15.454,6.363C337.512,145.889,339.635,151.042,339.635,157.1z"></path>
</svg>
