<svg xmlns="http://www.w3.org/2000/svg" viewBox="0 0 360 360">
    <title>question</title>
    <style>.icon{fill:#B8BEC4;fill-rule:evenodd;}</style>
    <path class="icon" d="M303,116.1c0,9.563-1.377,18.506-4.126,26.828c-2.755,8.325-5.856,15.1-9.317,20.32   c-3.462,5.225-8.345,10.493-14.643,15.804c-6.301,5.313-11.404,9.163-15.306,11.555c-3.906,2.392-9.317,5.537-16.238,9.431   c-7.279,4.075-13.355,9.828-18.235,17.266c-4.883,7.438-7.32,13.373-7.32,17.798c0,3.013-1.065,5.889-3.195,8.632   c-2.13,2.748-4.616,4.116-7.453,4.116h-63.889c-2.663,0-4.925-1.636-6.788-4.913c-1.864-3.274-2.795-6.595-2.795-9.961v-11.953   c0-14.697,5.765-28.556,17.302-41.571c11.535-13.015,24.225-22.621,38.068-28.82c10.47-4.781,17.923-9.737,22.361-14.875   c4.435-5.134,6.654-11.862,6.654-20.188c0-7.438-4.125-13.987-12.378-19.656c-8.252-5.666-17.793-8.5-28.617-8.5   c-11.538,0-21.121,2.569-28.75,7.703c-6.214,4.428-15.707,14.609-28.484,30.547c-2.309,2.834-5.057,4.25-8.251,4.25   c-2.131,0-4.352-0.706-6.656-2.125L61.286,94.584c-2.309-1.769-3.686-3.984-4.127-6.641c-0.444-2.656,0.042-5.134,1.465-7.438   C87.016,33.403,128.191,9.85,182.143,9.85c14.196,0,28.482,2.748,42.859,8.234c14.375,5.491,27.327,12.841,38.865,22.047   c11.534,9.209,20.939,20.499,28.218,33.867C299.361,87.37,303,101.403,303,116.1z M218.879,275.475v63.751   c0,2.833-1.064,5.311-3.194,7.438c-2.13,2.124-4.618,3.187-7.454,3.187h-63.889c-2.841,0-5.324-1.063-7.454-3.187   c-2.13-2.127-3.194-4.604-3.194-7.438v-63.751c0-2.832,1.064-5.313,3.194-7.438c2.13-2.126,4.613-3.187,7.454-3.187h63.889   c2.836,0,5.324,1.061,7.454,3.187C217.815,270.162,218.879,272.643,218.879,275.475z"></path>
</svg>
