<svg xmlns="http://www.w3.org/2000/svg" viewBox="0 0 360 360">
    <title>search</title>
    <style>.icon{fill:#B8BEC4;fill-rule:evenodd;}</style>
    <path class="icon" d="M340,315.236c0,6.664-2.437,12.434-7.309,17.308c-4.873,4.87-10.643,7.307-17.307,7.307   c-6.924,0-12.692-2.437-17.308-7.307l-65.962-65.77c-22.951,15.898-48.528,23.846-76.73,23.846   c-18.335,0-35.866-3.558-52.596-10.674c-16.731-7.114-31.155-16.729-43.27-28.845c-12.115-12.116-21.73-26.539-28.846-43.27   C23.558,191.1,20,173.57,20,155.235c0-18.333,3.558-35.866,10.673-52.597c7.116-16.73,16.731-31.152,28.846-43.269   c12.115-12.115,26.539-21.731,43.27-28.847c16.73-7.115,34.261-10.673,52.596-10.673c18.332,0,35.865,3.558,52.596,10.673   s31.153,16.731,43.269,28.847c12.116,12.116,21.731,26.538,28.847,43.269c7.116,16.73,10.673,34.264,10.673,52.597   c0,28.207-7.951,53.783-23.846,76.731l65.962,65.962C337.626,302.668,340,308.438,340,315.236z M216.25,216.101   c16.857-16.858,25.289-37.146,25.289-60.866c0-23.717-8.432-44.005-25.289-60.865c-16.859-16.857-37.148-25.288-60.864-25.288   c-23.72,0-44.009,8.431-60.865,25.288c-16.86,16.86-25.289,37.148-25.289,60.865c0,23.72,8.428,44.008,25.289,60.866   c16.856,16.859,37.146,25.288,60.865,25.288C179.101,241.389,199.39,232.96,216.25,216.101z"></path>
</svg>
