<svg xmlns="http://www.w3.org/2000/svg" viewBox="0 0 360 360">
    <title>user</title>
    <style>.icon{fill:#fff;fill-rule:evenodd;}.icon-bg{fill:#B8BEC4;fill-rule:evenodd;}</style>
    <circle class="icon-bg" cx="180" cy="179.85" r="155"></circle>
    <path class="icon" d="M208.968,226.94c-6.271-1.217-11.042-6.885-11.042-13.573c0-4.763,15.612-19.351,15.504-19.555   c16.115-16.615,24.724-43.762,24.724-64.632c0-32.317-26.04-58.658-58.152-58.658c-32.114,0-58.153,26.341-58.153,58.658   c0,20.969,8.41,48.323,24.614,64.939c0,0,15.612,14.484,15.612,19.247c0,7.089-5.273,12.966-12.169,13.776   c-34.33,3.646-54.8,14.385-70.708,35.156c-4.561,5.976-7.093,18.03-7.193,24.516l-0.014,4.19   c27.915,27.13,66.008,43.845,108.011,43.845c42.044,0,80.171-16.748,108.094-43.927v-4.108c-0.197-6.485-2.729-18.54-7.292-24.516   C264.687,241.325,244.031,230.488,208.968,226.94z"></path>
</svg>
